<svg xmlns="http://www.w3.org/2000/svg" viewBox="0 0 21.23 34"><defs><style>.cls-1{fill:#d1b66b;}</style></defs><g id="Layer_2" data-name="Layer 2"><g id="Layer_1-2" data-name="Layer 1"><path class="cls-1" d="M4.39,31.51a10.57,10.57,0,0,1,7-10,5.41,5.41,0,0,0,1.06-.32,4.62,4.62,0,0,0,.71-8.07,10.73,10.73,0,0,0,4.58-4,10.62,10.62,0,0,1,2.15,13l-.06.11a10.6,10.6,0,0,1-5.06,4.52q-.52.18-1,.39A21.23,21.23,0,0,0,4.68,34,10.74,10.74,0,0,1,4.39,31.51Z"/><path class="cls-1" d="M16.85,2.49a10.6,10.6,0,0,1-7,10,5.32,5.32,0,0,0-1.05.32,4.61,4.61,0,0,0-.71,8.07,10.7,10.7,0,0,0-4.59,4,10.62,10.62,0,0,1-2.15-13l.06-.11A10.6,10.6,0,0,1,6.44,7.27c.35-.12.71-.25,1-.39A21.23,21.23,0,0,0,16.55,0,10.23,10.23,0,0,1,16.85,2.49Z"/></g></g></svg>